<svg width="36" height="36" viewBox="0 0 36 36" fill="none" xmlns="http://www.w3.org/2000/svg">
<circle cx="17.5995" cy="17.5995" r="17.5995" fill="#5865F2"/>
<path d="M20.6172 9.53602H20.5721L20.2685 9.85382C23.3845 10.8072 24.8921 12.2961 24.8921 12.2961C22.8839 11.2347 21.0742 10.7039 19.2644 10.4894C17.9567 10.2749 16.649 10.3877 15.5442 10.4894H15.2436C14.5371 10.4894 13.034 10.8072 11.0198 11.6573C10.3179 11.9799 9.91504 12.1913 9.91504 12.1913C9.91504 12.1913 11.4212 10.5991 14.74 9.74894L14.5371 9.53443C14.5371 9.53443 12.0239 9.43273 9.31078 11.5525C9.31078 11.5525 6.59766 16.5483 6.59766 22.7073C6.59766 22.7073 8.10077 25.4722 12.2238 25.5771C12.2238 25.5771 12.8251 24.7301 13.4338 23.9849C11.119 23.2412 10.2172 21.7539 10.2172 21.7539C10.2172 21.7539 10.4186 21.8588 10.7207 22.0717H10.8109C10.856 22.0717 10.877 22.0955 10.9011 22.1194V22.1289C10.9251 22.1543 10.9462 22.1766 10.9913 22.1766C11.4873 22.3927 11.9833 22.6056 12.3892 22.8122C13.2571 23.205 14.165 23.4908 15.0948 23.6639C16.4927 23.8784 18.095 23.9817 19.9198 23.6639C20.8217 23.4494 21.7235 23.2396 22.6254 22.8138C23.2116 22.496 23.9331 22.1782 24.7253 21.6427C24.7253 21.6427 23.8234 23.13 21.4109 23.8736C21.9069 24.6141 22.6059 25.4627 22.6059 25.4627C26.7304 25.3673 28.3327 22.6024 28.4229 22.72C28.4229 16.5706 25.6948 11.5652 25.6948 11.5652C23.2372 9.63612 20.9374 9.56303 20.5316 9.56303L20.6157 9.53125L20.6172 9.53602ZM20.8698 16.5483C21.9264 16.5483 22.7787 17.5017 22.7787 18.6696C22.7787 19.8455 21.9219 20.7989 20.8698 20.7989C19.8176 20.7989 18.9608 19.8455 18.9608 18.6792C18.9638 17.5033 19.8221 16.5531 20.8698 16.5531V16.5483ZM14.0411 16.5483C15.0933 16.5483 15.944 17.5017 15.944 18.6696C15.944 19.8455 15.0873 20.7989 14.0351 20.7989C12.9829 20.7989 12.1261 19.8455 12.1261 18.6792C12.1261 17.5033 12.9829 16.5531 14.0351 16.5531L14.0411 16.5483Z" fill="white"/>
</svg>
