<svg width="36" height="36" viewBox="0 0 36 36" fill="none" xmlns="http://www.w3.org/2000/svg">
<circle cx="17.5995" cy="17.5995" r="17.5995" fill="white"/>
<path d="M25.1877 11.9902L26.6091 10.5787V10.2695H21.6863L18.178 19.3377L14.1873 10.2695H9.0257V10.5787L10.686 12.654C10.8483 12.8074 10.9317 13.0326 10.9109 13.2579V21.4131C10.9619 21.7078 10.8715 22.0074 10.672 22.2207L8.80078 24.5764V24.8807H14.1015V24.5716L12.2326 22.2231C12.0309 22.0098 11.9335 21.7126 11.9752 21.4155V14.3603L16.629 24.8855H17.1693L21.1715 14.3603V22.7455C21.1715 22.966 21.1715 23.0115 21.0324 23.1577L19.5924 24.6028V24.9119H26.5766V24.6028L25.1877 23.1912C25.0671 23.0954 25.0045 22.9348 25.03 22.779V12.4024C25.0045 12.2466 25.0671 12.086 25.1877 11.9902Z" fill="black"/>
</svg>
