<svg width="36" height="36" viewBox="0 0 36 36" fill="none" xmlns="http://www.w3.org/2000/svg">
<circle cx="17.5995" cy="17.5995" r="17.5995" fill="#1D9BF0"/>
<path d="M28.6543 11.5566C27.9242 11.8896 27.1296 12.1292 26.3113 12.2225C27.1559 11.6903 27.7977 10.8504 28.1007 9.85158C27.3205 10.3434 26.4377 10.7041 25.5191 10.8908C24.7747 10.0508 23.7177 9.53125 22.5462 9.53125C20.2915 9.53125 18.4782 11.4633 18.4782 13.8343C18.4782 14.1672 18.5164 14.5002 18.5784 14.8205C15.2023 14.6338 12.1912 12.9288 10.1894 10.3182C9.83628 10.9589 9.63586 11.6903 9.63586 12.4899C9.63586 13.9831 10.354 15.2997 11.4492 16.0741C10.7811 16.0463 10.1512 15.8471 9.60962 15.5267V15.5797C9.60962 17.6707 11.0078 19.4035 12.8712 19.802C12.53 19.8953 12.165 19.9483 11.7999 19.9483C11.5351 19.9483 11.2846 19.9206 11.0316 19.8827C11.547 21.5878 13.0478 22.8262 14.8348 22.8666C13.4367 24.0243 11.6854 24.7053 9.78379 24.7053C9.4426 24.7053 9.12766 24.6927 8.80078 24.6524C10.6046 25.8757 12.7448 26.5819 15.0496 26.5819C22.5319 26.5819 26.6262 20.029 26.6262 14.3413C26.6262 14.1546 26.6262 13.968 26.6143 13.7813C27.4064 13.1684 28.1007 12.4092 28.6543 11.5566Z" fill="white"/>
</svg>
