<svg width="36" height="36" viewBox="0 0 36 36" fill="none" xmlns="http://www.w3.org/2000/svg">
<circle cx="17.5098" cy="17.5098" r="17.5098" fill="#FF0000"/>
<path d="M27.2947 12.5872C27.0598 11.7071 26.3667 11.014 25.489 10.7792C23.8953 10.3506 17.507 10.3506 17.507 10.3506C17.507 10.3506 11.1187 10.3506 9.52501 10.7769C8.64496 11.0118 7.95414 11.7049 7.71931 12.5849C7.29297 14.1808 7.29297 17.5095 7.29297 17.5095C7.29297 17.5095 7.29297 20.8382 7.71931 22.4319C7.95414 23.3119 8.64724 24.005 9.52501 24.2398C11.1187 24.6685 17.507 24.6685 17.507 24.6685C17.507 24.6685 23.8953 24.6685 25.489 24.2398C26.369 24.005 27.0598 23.3119 27.2947 22.4319C27.721 20.8382 27.721 17.5095 27.721 17.5095C27.721 17.5095 27.721 14.1808 27.2947 12.5872ZM15.4779 20.5646V14.4544L20.7673 17.4867L15.4779 20.5646Z" fill="white"/>
</svg>
